<mxfile host="65bd71144e">
    <diagram id="dVBPJDV1bFR9rFKOtvQQ" name="Page-1">
        <mxGraphModel dx="821" dy="401" grid="1" gridSize="10" guides="1" tooltips="1" connect="1" arrows="1" fold="1" page="1" pageScale="1" pageWidth="827" pageHeight="1169" math="0" shadow="0">
            <root>
                <mxCell id="0"/>
                <mxCell id="1" parent="0"/>
                <mxCell id="2" value="" style="rounded=1;whiteSpace=wrap;html=1;fillColor=#d80073;fontColor=#ffffff;strokeColor=#A50040;" vertex="1" parent="1">
                    <mxGeometry x="310" y="190" width="230" height="210" as="geometry"/>
                </mxCell>
                <mxCell id="8" value="" style="shape=image;html=1;verticalLabelPosition=bottom;verticalAlign=top;imageAspect=1;aspect=fixed;image=img/clipart/Gear_128x128.png" vertex="1" parent="1">
                    <mxGeometry x="358" y="220" width="52" height="61" as="geometry"/>
                </mxCell>
                <mxCell id="3" value="" style="ellipse;shape=cloud;whiteSpace=wrap;html=1;fillColor=#1ba1e2;fontColor=#ffffff;strokeColor=#006EAF;" vertex="1" parent="1">
                    <mxGeometry x="365" y="240" width="120" height="80" as="geometry"/>
                </mxCell>
                <mxCell id="4" value="Actor" style="shape=umlActor;verticalLabelPosition=bottom;verticalAlign=top;html=1;outlineConnect=0;fillColor=#60a917;fontColor=#ffffff;strokeColor=#2D7600;" vertex="1" parent="1">
                    <mxGeometry x="340" y="320" width="30" height="60" as="geometry"/>
                </mxCell>
                <mxCell id="5" value="Actor" style="shape=umlActor;verticalLabelPosition=bottom;verticalAlign=top;html=1;outlineConnect=0;fillColor=#60a917;fontColor=#ffffff;strokeColor=#2D7600;" vertex="1" parent="1">
                    <mxGeometry x="380" y="320" width="30" height="60" as="geometry"/>
                </mxCell>
                <mxCell id="6" value="Actor" style="shape=umlActor;verticalLabelPosition=bottom;verticalAlign=top;html=1;outlineConnect=0;fillColor=#60a917;fontColor=#ffffff;strokeColor=#2D7600;" vertex="1" parent="1">
                    <mxGeometry x="420" y="320" width="30" height="60" as="geometry"/>
                </mxCell>
                <mxCell id="7" value="Actor" style="shape=umlActor;verticalLabelPosition=bottom;verticalAlign=top;html=1;outlineConnect=0;fillColor=#60a917;fontColor=#ffffff;strokeColor=#2D7600;" vertex="1" parent="1">
                    <mxGeometry x="460" y="320" width="30" height="60" as="geometry"/>
                </mxCell>
                <mxCell id="9" value="" style="image;html=1;image=img/lib/clip_art/finance/Piggy_Bank_128x128.png" vertex="1" parent="1">
                    <mxGeometry x="385" y="210.5" width="80" height="80" as="geometry"/>
                </mxCell>
                <mxCell id="12" value="" style="image;html=1;image=img/lib/clip_art/telecommunication/BlackBerry_128x128.png" vertex="1" parent="1">
                    <mxGeometry x="330" y="310" width="20" height="50" as="geometry"/>
                </mxCell>
                <mxCell id="13" value="" style="image;html=1;image=img/lib/clip_art/telecommunication/BlackBerry_128x128.png" vertex="1" parent="1">
                    <mxGeometry x="370" y="310" width="20" height="50" as="geometry"/>
                </mxCell>
                <mxCell id="14" value="" style="image;html=1;image=img/lib/clip_art/telecommunication/BlackBerry_128x128.png" vertex="1" parent="1">
                    <mxGeometry x="404" y="310" width="20" height="50" as="geometry"/>
                </mxCell>
                <mxCell id="15" value="" style="image;html=1;image=img/lib/clip_art/telecommunication/BlackBerry_128x128.png" vertex="1" parent="1">
                    <mxGeometry x="450" y="310" width="20" height="50" as="geometry"/>
                </mxCell>
            </root>
        </mxGraphModel>
    </diagram>
</mxfile>